HIERARCHY
ROOT Hips
{
	OFFSET 51.531300 -7.305469 56.166901
	CHANNELS 6 Xposition Yposition Zposition Xrotation Yrotation Zrotation
	JOINT spine
	{
		OFFSET 0.000000 -0.367607 6.392601
		CHANNELS 3 Xrotation Yrotation Zrotation
		JOINT spine1
		{
			OFFSET 0.000000 -0.000002 9.176109
			CHANNELS 3 Xrotation Yrotation Zrotation
			JOINT spine2
			{
				OFFSET 0.000000 -0.000001 8.792381
				CHANNELS 3 Xrotation Yrotation Zrotation
				JOINT Neck
				{
					OFFSET 0.000000 -1.076243 22.573700
					CHANNELS 3 Xrotation Yrotation Zrotation
					JOINT Head
					{
						OFFSET 0.000000 -0.000001 6.820107
						CHANNELS 3 Xrotation Yrotation Zrotation
						End Site
						{
							OFFSET 0.000000 5.444268 16.508499
						}
					}
				}
				JOINT RightShoulder
				{
					OFFSET -3.702209 0.515507 9.495087
					CHANNELS 3 Xrotation Yrotation Zrotation
					JOINT RightArm
					{
						OFFSET 0.000000 -0.000002 12.453697
						CHANNELS 3 Xrotation Yrotation Zrotation
						JOINT RightArmRoll
						{
							OFFSET 0.000000 -0.000001 6.286858
							CHANNELS 3 Xrotation Yrotation Zrotation
							JOINT RightForeArm
							{
								OFFSET 0.000000 -0.000003 18.311401
								CHANNELS 3 Xrotation Yrotation Zrotation
								JOINT RightForeArmRoll
								{
									OFFSET 0.000000 -0.000001 7.054832
									CHANNELS 3 Xrotation Yrotation Zrotation
									JOINT RightHand
									{
										OFFSET 0.000000 -0.000002 14.157501
										CHANNELS 3 Xrotation Yrotation Zrotation
										End Site
										{
											OFFSET 0.000000 0.000000 0.100006
										}
									}
								}
							}
						}
					}
				}
				JOINT LeftShoulder
				{
					OFFSET 3.702209 0.515507 9.495087
					CHANNELS 3 Xrotation Yrotation Zrotation
					JOINT LeftArm
					{
						OFFSET 0.000000 -0.000002 12.453697
						CHANNELS 3 Xrotation Yrotation Zrotation
						JOINT LeftArmRoll
						{
							OFFSET 0.000000 -0.000001 6.286858
							CHANNELS 3 Xrotation Yrotation Zrotation
							JOINT LeftForeArm
							{
								OFFSET 0.000000 -0.000003 18.311401
								CHANNELS 3 Xrotation Yrotation Zrotation
								JOINT LeftForeArmRoll
								{
									OFFSET 0.000000 -0.000001 7.054832
									CHANNELS 3 Xrotation Yrotation Zrotation
									JOINT LeftHand
									{
										OFFSET 0.000000 -0.000002 14.157501
										CHANNELS 3 Xrotation Yrotation Zrotation
										End Site
										{
											OFFSET 0.000000 0.000000 0.100006
										}
									}
								}
							}
						}
					}
				}
			}
		}
	}
	JOINT RightUpLeg
	{
		OFFSET -5.666161 0.871610 -1.039028
		CHANNELS 3 Xrotation Yrotation Zrotation
		JOINT RightUpLegRoll
		{
			OFFSET 0.000000 -0.000003 16.600498
			CHANNELS 3 Xrotation Yrotation Zrotation
			JOINT RightLeg
			{
				OFFSET 0.000000 0.000004 -20.557198
				CHANNELS 3 Xrotation Yrotation Zrotation
				JOINT RightLegRoll
				{
					OFFSET 0.000000 -0.000004 20.624397
					CHANNELS 3 Xrotation Yrotation Zrotation
					JOINT RightFoot
					{
						OFFSET 0.000000 -0.000002 17.166405
						CHANNELS 3 Xrotation Yrotation Zrotation
						JOINT RightToeBase
						{
							OFFSET 0.000000 -0.000002 14.350197
							CHANNELS 3 Xrotation Yrotation Zrotation
							End Site
							{
								OFFSET 0.006081 0.801060 6.949707
							}
						}
					}
				}
			}
		}
	}
	JOINT LeftUpLeg
	{
		OFFSET 5.666161 0.871610 -1.039028
		CHANNELS 3 Xrotation Yrotation Zrotation
		JOINT LeftUpLegRoll
		{
			OFFSET 0.000000 -0.000003 16.600597
			CHANNELS 3 Xrotation Yrotation Zrotation
			JOINT LeftLeg
			{
				OFFSET 0.000000 -0.000003 20.557098
				CHANNELS 3 Xrotation Yrotation Zrotation
				JOINT LeftLegRoll
				{
					OFFSET 0.000000 -0.000003 20.815102
					CHANNELS 3 Xrotation Yrotation Zrotation
					JOINT LeftFoot
					{
						OFFSET 0.000000 -0.000002 16.975700
						CHANNELS 3 Xrotation Yrotation Zrotation
						JOINT LeftToeBase
						{
							OFFSET 0.000000 -0.000002 14.350204
							CHANNELS 3 Xrotation Yrotation Zrotation
							End Site
							{
								OFFSET -0.027260 0.801060 6.949707
							}
						}
					}
				}
			}
		}
	}
}
MOTION
Frames: 13
Frame Time: 0.041667
51.261101 -8.425507 58.318996 14.637087 -2.255246 4.059073 1.769948 0.849088 -0.507623 7.551244 1.676403 -1.049064 9.196484 1.663719 -1.069075 -4.153039 -1.900640 -0.518895 -0.823562 -0.247180 -0.025187 1.531835 -49.488682 3.167045 -51.027332 -125.607261 -84.622554 -0.000000 -0.000001 -0.000004 81.414236 -0.648022 -2.150585 0.000001 -0.000010 -3.000001 -5.000209 -7.998756 0.000159 -3.558799 45.072500 2.633873 -45.587927 127.224786 70.814329 0.000000 0.000007 0.000001 77.098547 4.008029 1.998749 -0.000000 -0.000002 3.000001 -5.000239 7.998711 -0.000162 -92.275487 -174.156696 -0.588752 -179.999991 0.000005 -0.855995 105.517339 1.713144 -1.992436 0.000005 0.000003 1.430640 66.840293 7.058605 1.861691 25.456957 -7.355625 0.004785 -90.172991 177.830710 -1.208420 -0.000002 -0.000004 -0.992964 -73.201979 -0.351936 2.252293 -0.000007 -0.000001 -1.542250 64.190528 -7.223673 -1.667850 25.464236 7.355619 -0.002311 
51.262104 -8.398899 58.277397 14.492114 -2.269703 4.074907 1.774487 0.853916 -0.511249 7.560441 1.685835 -1.056577 9.205679 1.673063 -1.076702 -4.064969 -1.975930 -0.535612 -0.834169 -0.192276 -0.029635 1.480981 -49.609655 3.085745 -51.068986 -125.632915 -84.621454 -0.000000 -0.000000 -0.000005 81.341843 -0.678532 -2.117946 0.000001 -0.000011 -3.000001 -5.000207 -7.998748 0.000160 -3.522984 45.065411 2.587318 -45.582381 127.226685 70.738992 0.000000 0.000008 -0.000001 77.051569 4.013074 1.985787 -0.000002 -0.000001 2.999999 -5.000240 7.998717 -0.000162 -92.204159 -174.123939 -0.612039 -179.999991 0.000005 -0.859001 105.487504 1.743980 -1.975165 0.000004 0.000003 1.433440 66.836816 7.060703 1.857148 25.456957 -7.355624 0.004785 -90.100495 177.836925 -1.221803 -0.000004 -0.000004 -0.995760 -73.212627 -0.359268 2.247443 -0.000007 -0.000002 -1.544280 64.180446 -7.225299 -1.664294 25.464234 7.355618 -0.002311 
51.268299 -8.331676 58.287495 14.349128 -2.283222 4.089817 1.778867 0.858137 -0.514709 7.569299 1.694038 -1.063733 9.214541 1.681175 -1.083953 -3.982230 -2.041972 -0.551248 -0.840651 -0.143789 -0.034862 1.428536 -49.722514 3.003752 -51.103008 -125.662981 -84.609979 0.000000 0.000000 -0.000007 81.265796 -0.710123 -2.084190 0.000000 -0.000010 -3.000002 -5.000207 -7.998754 0.000159 -3.492474 45.062036 2.547985 -45.580041 127.230182 70.670793 0.000000 0.000007 -0.000001 77.002248 4.019326 1.972150 -0.000000 0.000002 3.000003 -5.000239 7.998716 -0.000162 -92.130475 -174.091058 -0.629864 -179.999991 0.000005 -0.860995 105.460586 1.770710 -1.959376 0.000005 0.000003 1.435750 66.833544 7.062445 1.853416 25.456957 -7.355624 0.004785 -90.030492 177.841734 -1.232824 -0.000003 -0.000004 -0.998452 -73.226615 -0.367578 2.241792 -0.000007 -0.000002 -1.546350 64.172202 -7.226817 -1.660993 25.464234 7.355619 -0.002311 
51.264202 -8.295238 58.261898 14.208938 -2.295443 4.103331 1.782954 0.861616 -0.517909 7.577547 1.700736 -1.070333 9.222785 1.687789 -1.090633 -3.905305 -2.097074 -0.565682 -0.842392 -0.102888 -0.041026 1.374365 -49.825670 2.921112 -51.126971 -125.698567 -84.585623 0.000001 -0.000000 -0.000003 81.185602 -0.742843 -2.049254 0.000001 -0.000010 -3.000001 -5.000206 -7.998756 0.000159 -3.467908 45.063297 2.516783 -45.582203 127.234745 70.612312 0.000000 0.000008 0.000001 76.950708 4.026925 1.957751 -0.000001 -0.000001 3.000000 -5.000241 7.998717 -0.000164 -92.054844 -174.058710 -0.639948 -179.999991 0.000005 -0.863003 105.436817 1.792312 -1.946931 0.000005 0.000003 1.437500 66.830362 7.063778 1.850695 25.456953 -7.355625 0.004785 -89.964274 177.844507 -1.240869 -0.000003 -0.000004 -1.001010 -73.245316 -0.376992 2.235217 -0.000007 -0.000002 -1.548470 64.166226 -7.228270 -1.657725 25.464234 7.355618 -0.002311 
51.276295 -8.123938 58.371094 14.072026 -2.305971 4.114947 1.786603 0.864221 -0.520754 7.584889 1.705664 -1.076181 9.230132 1.692650 -1.096540 -3.834699 -2.139494 -0.578795 -0.838788 -0.070741 -0.048287 1.318324 -49.917529 2.837896 -51.139730 -125.740204 -84.547114 0.000000 -0.000001 -0.000007 81.101256 -0.776703 -2.013096 0.000000 -0.000009 -2.999999 -5.000210 -7.998752 0.000159 -3.449964 45.069737 2.494650 -45.589057 127.240427 70.564610 0.000001 0.000007 -0.000001 76.897111 4.035994 1.942605 0.000001 -0.000001 3.000002 -5.000243 7.998715 -0.000165 -91.977704 -174.027606 -0.643784 -179.999991 0.000005 -0.864997 105.416354 1.808306 -1.937774 0.000005 0.000003 1.438600 66.827083 7.064754 1.848807 25.456957 -7.355625 0.004785 -89.903150 177.844479 -1.245813 -0.000003 -0.000004 -1.003390 -73.269857 -0.387631 2.227619 -0.000007 -0.000002 -1.550650 64.162824 -7.229608 -1.654558 25.464234 7.355619 -0.002310 
51.266701 -8.107990 58.344791 13.939398 -2.314427 4.124197 1.789677 0.865818 -0.523150 7.591075 1.708563 -1.081081 9.236309 1.695492 -1.101475 -3.770871 -2.167522 -0.590470 -0.829221 -0.048520 -0.056798 1.260289 -49.996674 2.754181 -51.140843 -125.787619 -84.494180 0.000001 0.000000 -0.000007 81.012280 -0.811741 -1.975709 -0.000001 -0.000010 -3.000001 -5.000209 -7.998754 0.000160 -3.439281 45.082254 2.482506 -45.602134 127.246861 70.530521 0.000001 0.000008 -0.000002 76.841472 4.046659 1.927021 0.000001 -0.000001 2.999999 -5.000243 7.998713 -0.000165 -91.899403 -173.998659 -0.638778 -179.999991 0.000005 -0.867006 105.399149 1.817908 -1.931788 0.000005 0.000003 1.438970 66.823750 7.065196 1.848214 25.456955 -7.355625 0.004786 -89.848454 177.841132 -1.247052 -0.000004 -0.000004 -1.005570 -73.301542 -0.399623 2.218850 -0.000007 -0.000002 -1.552900 64.162292 -7.230769 -1.651761 25.464233 7.355619 -0.002311 
51.261299 -8.178390 58.209995 13.810353 -2.321210 4.131683 1.792445 0.866399 -0.525249 7.596631 1.709384 -1.085339 9.241873 1.696265 -1.105743 -3.715946 -2.179652 -0.600740 -0.813254 -0.037363 -0.066727 1.197984 -50.063036 2.667183 -51.130130 -125.843189 -84.426964 0.000000 -0.000001 -0.000006 80.918699 -0.848292 -1.936918 -0.000000 -0.000010 -3.000003 -5.000210 -7.998754 0.000158 -3.437970 45.101996 2.483186 -45.621921 127.255440 70.510003 0.000000 0.000008 -0.000000 76.783382 4.059162 1.910450 -0.000000 -0.000000 3.000001 -5.000242 7.998712 -0.000164 -91.817796 -173.969768 -0.625048 -179.999991 0.000005 -0.869000 105.386923 1.819992 -1.931887 0.000005 0.000003 1.438490 66.820485 7.065105 1.848904 25.456957 -7.355625 0.004786 -89.799857 177.835122 -1.244179 -0.000003 -0.000005 -1.007560 -73.340679 -0.413417 2.208640 -0.000007 -0.000002 -1.555269 64.165078 -7.231864 -1.648928 25.464234 7.355618 -0.002311 
51.247795 -8.091568 58.248291 13.683701 -2.327080 4.138424 1.795289 0.866110 -0.527272 7.602306 1.708420 -1.089408 9.247543 1.695241 -1.109798 -3.670897 -2.176749 -0.609835 -0.791282 -0.036760 -0.078017 1.129911 -50.118617 2.574825 -51.109124 -125.907775 -84.347311 -0.000000 0.000000 -0.000006 80.821055 -0.886566 -1.896708 0.000001 -0.000008 -3.000001 -5.000211 -7.998753 0.000160 -3.446845 45.128928 2.497707 -45.650618 127.266095 70.503931 -0.000001 0.000008 -0.000002 76.722545 4.073390 1.892993 -0.000002 0.000002 3.000002 -5.000240 7.998713 -0.000163 -91.730779 -173.938881 -0.601938 -179.999991 0.000005 -0.870994 105.380421 1.815213 -1.935138 0.000005 0.000003 1.437160 66.817678 7.064496 1.850758 25.456955 -7.355626 0.004785 -89.755632 177.827896 -1.237327 -0.000003 -0.000005 -1.009421 -73.385786 -0.429205 2.196889 -0.000007 -0.000002 -1.557820 64.171287 -7.232870 -1.646147 25.464234 7.355618 -0.002311 
51.250996 -8.098881 58.182697 13.559043 -2.332126 4.144552 1.798176 0.865053 -0.529227 7.608071 1.705859 -1.093307 9.253316 1.692636 -1.113666 -3.634516 -2.160649 -0.617928 -0.763921 -0.045406 -0.090486 1.057145 -50.164502 2.478241 -51.080779 -125.979288 -84.258388 -0.000000 -0.000000 -0.000006 80.719428 -0.926452 -1.855197 -0.000000 -0.000013 -3.000002 -5.000207 -7.998757 0.000158 -3.464592 45.161986 2.524274 -45.686114 127.278963 70.509423 -0.000000 0.000008 -0.000001 76.658970 4.089234 1.874640 0.000001 -0.000001 3.000001 -5.000239 7.998712 -0.000163 -91.638838 -173.906329 -0.570243 -179.999991 0.000005 -0.873002 105.379055 1.804307 -1.942632 0.000004 0.000003 1.435100 66.815281 7.063433 1.853795 25.456959 -7.355625 0.004784 -89.714917 177.819658 -1.226730 -0.000002 -0.000005 -1.011180 -73.436056 -0.446697 2.183773 -0.000007 -0.000002 -1.560510 64.180480 -7.233797 -1.643348 25.464234 7.355618 -0.002311 
51.256298 -8.049928 58.174698 13.436177 -2.336438 4.150195 1.801118 0.863329 -0.531120 7.613909 1.701930 -1.097055 9.259145 1.688670 -1.117367 -3.605624 -2.133203 -0.625172 -0.731790 -0.061993 -0.103944 0.980746 -50.201679 2.378575 -51.045525 -126.056674 -84.160396 -0.000001 -0.000000 -0.000006 80.613922 -0.967836 -1.812484 0.000001 -0.000010 -2.999999 -5.000209 -7.998753 0.000161 -3.489876 45.200228 2.561086 -45.726990 127.294495 70.524073 0.000000 0.000008 0.000000 76.592785 4.106527 1.855471 0.000001 0.000002 3.000003 -5.000239 7.998716 -0.000163 -91.542642 -173.872178 -0.532572 -179.999991 0.000005 -0.874997 105.382224 1.788011 -1.953486 0.000005 0.000003 1.432410 66.813184 7.061986 1.857630 25.456955 -7.355625 0.004786 -89.676900 177.810602 -1.213274 -0.000003 -0.000004 -1.012830 -73.490377 -0.465611 2.169511 -0.000007 -0.000002 -1.563310 64.192181 -7.234682 -1.640574 25.464229 7.355619 -0.002310 
51.263699 -8.029009 58.148098 13.314708 -2.340116 4.155482 1.804083 0.861043 -0.532961 7.619802 1.696842 -1.100674 9.265047 1.683539 -1.120924 -3.582999 -2.096258 -0.631710 -0.695533 -0.085215 -0.118205 0.901779 -50.231206 2.276955 -51.002126 -126.140439 -84.051379 0.000000 0.000001 -0.000008 80.504940 -1.010570 -1.768689 0.000001 -0.000009 -3.000000 -5.000209 -7.998754 0.000159 -3.521388 45.242661 2.606349 -45.772827 127.311379 70.547296 -0.000001 0.000007 -0.000002 76.523848 4.125147 1.835480 -0.000002 0.000002 3.000002 -5.000243 7.998712 -0.000167 -91.442634 -173.836961 -0.488970 -179.999991 0.000005 -0.875994 105.389218 1.767035 -1.967756 0.000005 0.000003 1.429210 66.811408 7.060191 1.862375 25.456955 -7.355625 0.004785 -89.640707 177.800739 -1.197295 -0.000003 -0.000005 -1.014400 -73.547764 -0.485665 2.154282 -0.000007 -0.000002 -1.566180 64.205943 -7.235541 -1.637654 25.464234 7.355619 -0.002310 
51.244804 -7.990158 58.120598 13.194330 -2.343259 4.160532 1.807081 0.858293 -0.534756 7.625729 1.690802 -1.104182 9.270972 1.677451 -1.124359 -3.565458 -2.051674 -0.637677 -0.655753 -0.113763 -0.133084 0.821316 -50.254305 2.174525 -50.954345 -126.227715 -83.935525 -0.000000 -0.000001 -0.000008 80.392460 -1.054549 -1.723948 -0.000001 -0.000010 -3.000001 -5.000211 -7.998754 0.000161 -3.557832 45.288133 2.658279 -45.821977 127.329916 70.576570 0.000001 0.000007 -0.000002 76.452541 4.144887 1.814830 -0.000000 -0.000001 3.000001 -5.000241 7.998714 -0.000163 -91.339478 -173.800693 -0.439841 -179.999991 0.000005 -0.878002 105.399415 1.742368 -1.984592 0.000004 0.000003 1.425600 66.809885 7.058196 1.867461 25.456953 -7.355625 0.004785 -89.605525 177.790439 -1.179506 -0.000003 -0.000005 -1.015900 -73.607207 -0.506584 2.138288 -0.000007 -0.000002 -1.569100 64.221250 -7.236319 -1.634817 25.464238 7.355619 -0.002311 
51.243099 -7.938998 58.110798 13.074848 -2.345977 4.165491 1.810080 0.855184 -0.536515 7.631674 1.684029 -1.107601 9.276920 1.670643 -1.127696 -3.551788 -2.001291 -0.643206 -0.613076 -0.146331 -0.148394 0.740417 -50.272054 2.072423 -50.901613 -126.318174 -83.811851 0.000001 -0.000001 -0.000004 80.276887 -1.099626 -1.678342 -0.000001 -0.000010 -3.000002 -5.000211 -7.998749 0.000161 -3.597857 45.335685 2.715055 -45.873494 127.349683 70.610195 -0.000001 0.000008 -0.000001 76.378795 4.165586 1.793515 -0.000000 -0.000002 3.000001 -5.000238 7.998714 -0.000164 -91.233644 -173.763769 -0.388206 -179.999991 0.000005 -0.879997 105.412078 1.714988 -2.003076 0.000004 0.000003 1.421690 66.808607 7.055959 1.873184 25.456959 -7.355626 0.004786 -89.570541 177.779647 -1.159230 -0.000005 -0.000004 -1.017361 -73.667804 -0.528085 2.121740 -0.000007 -0.000002 -1.572020 64.237717 -7.237122 -1.631904 25.464231 7.355619 -0.002311 
